HIERARCHY
ROOT Hips
{
  OFFSET -4.60379 99.4982 -50.148
  CHANNELS 6 Xposition Yposition Zposition Zrotation Xrotation Yrotation
  JOINT RightUpLeg
  {
    OFFSET -8.9458 -8.66707 0.101652
    CHANNELS 3 Zrotation Xrotation Yrotation
    JOINT RightLeg
    {
      OFFSET 0 -44.4227 1.3727
      CHANNELS 3 Zrotation Xrotation Yrotation
      JOINT RightFoot
      {
        OFFSET 0.253549 -42.0924 -1.46059
        CHANNELS 3 Zrotation Xrotation Yrotation
        JOINT RightToes
        {
          OFFSET 0.04 -4.41509 8.4991
          CHANNELS 3 Zrotation Xrotation Yrotation
          End Site
          {
            OFFSET -0.08 -0.137448 9.77979
          }
        }
      }
    }
  }
  JOINT Spine
  {
    OFFSET 0 11.8905 0
    CHANNELS 3 Zrotation Xrotation Yrotation
    JOINT Spine1
    {
      OFFSET 0 25.6574 0.127663
      CHANNELS 3 Zrotation Xrotation Yrotation
      JOINT HEad
      {
        OFFSET 0 8.73416 0.011341
        CHANNELS 3 Zrotation Xrotation Yrotation
        End Site
        {
          OFFSET -0.29 12.7742 2.51395
        }
      }
      JOINT LeftShoulder1
      {
        OFFSET 8.99 -0.362252 -0.22
        CHANNELS 3 Zrotation Xrotation Yrotation
        JOINT LeftArm
        {
          OFFSET 10.2827 -0.00338 0.322123
          CHANNELS 3 Zrotation Xrotation Yrotation
          JOINT LeftForeArm
          {
            OFFSET 32.7669 0.099144 -1.42434
            CHANNELS 3 Zrotation Xrotation Yrotation
            JOINT LeftHand
            {
              OFFSET 27.5643 0.085362 1.02216
              CHANNELS 3 Zrotation Xrotation Yrotation
              End Site
              {
                OFFSET 16.7443 -0.6 1.50291
              }
            }
          }
        }
      }
      JOINT RightShoulder
      {
        OFFSET -8.99 -0.362252 -0.22
        CHANNELS 3 Zrotation Xrotation Yrotation
        JOINT RightArm
        {
          OFFSET -10.2827 -0.00338 0.322123
          CHANNELS 3 Zrotation Xrotation Yrotation
          JOINT RightForeArm
          {
            OFFSET -32.8971 0.099144 -1.42434
            CHANNELS 3 Zrotation Xrotation Yrotation
            JOINT RightHand
            {
              OFFSET -27.4921 0.085362 1.02216
              CHANNELS 3 Zrotation Xrotation Yrotation
              End Site
              {
                OFFSET -16.6312 -0.6 1.50291
              }
            }
          }
        }
      }
    }
  }
  JOINT LeftUpLeg
  {
    OFFSET 8.9458 -8.66707 0.101652
    CHANNELS 3 Zrotation Xrotation Yrotation
    JOINT LeftLeg
    {
      OFFSET 0 -44.4227 1.3727
      CHANNELS 3 Zrotation Xrotation Yrotation
      JOINT LeftFoot
      {
        OFFSET -0.253549 -42.0924 -1.46059
        CHANNELS 3 Zrotation Xrotation Yrotation
        JOINT LeftToes
        {
          OFFSET -0.04 -4.41509 8.4991
          CHANNELS 3 Zrotation Xrotation Yrotation
          End Site
          {
            OFFSET 0.08 -0.047448 9.77979
          }
        }
      }
    }
  }
}
MOTION
Frames:	21
Frame Time:	0.0166667
2.56345 99.724 35.7557 -4.75508 2.91265 178.679 -2.36103 -14.7598 7.88612 0.0235148 9.28153 -18.7414 5.52324 -0.606189 -0.255021 11.8176 3.19779 -12.7545 -5.71109 1.93279 -0.963731 -6.14929 -2.98312 -0.488001 6.08056 14.0546 -3.39291 -1.2424e-016 -1.59028e-015 -3.97569e-016 -83.0504 -17.6087 -14.3612 -19.8906 14.1274 -11.1758 0.368473 9.90896 -0.00117926 12.6099 -0.939222 -8.2732 76.1952 -31.7031 5.04965 20.47 11.4688 -2.92225 -0.369625 9.91382 0.00119886 -5.3744 6.45321 7.98325 -0.0534408 34.6097 14.1105 0.632904 -5.5532 0.133511 -1.55848 -19.5461 -9.65321 
2.90059 99.9544 34.0028 -4.3225 3.0311 178.666 -1.77758 -13.8235 7.69714 0.213976 9.93584 -18.3702 5.78544 -1.0591 -0.237637 12.4405 2.54776 -13.1236 -5.54564 2.05704 -0.776662 -5.54748 -3.15984 -0.463685 6.16231 14.0817 -3.53398 1.09332e-015 7.95139e-016 -7.95139e-016 -83.0179 -18.6295 -12.8701 -19.7666 14.1316 -11.2586 0.368473 9.90896 -0.00117926 12.3507 -0.936063 -8.31451 76.7022 -31.685 5.65008 20.2218 11.4307 -3.31066 -0.369625 9.91382 0.00119886 -4.07777 5.37729 8.74614 -0.263703 37.618 15.3992 0.613262 -2.50784 0.113622 5.26144 -16.9088 -16.5164 
3.24302 100.162 32.3302 -3.85347 3.17145 178.68 -1.13001 -12.7638 7.20957 0.307146 10.3369 -17.8078 6.10703 -1.58835 -0.217775 13.1284 1.75938 -13.5116 -5.29733 2.20786 -0.61758 -4.99563 -3.18335 -0.433015 6.33617 14.0164 -3.73399 -8.69683e-016 1.59028e-015 -0 -82.9408 -19.6089 -11.5556 -19.6349 14.1095 -11.1837 0.368473 9.90896 -0.00117926 12.0432 -0.939271 -8.401 77.4602 -31.559 6.45181 19.9446 11.4103 -3.61527 -0.369625 9.91382 0.00119886 -2.69404 3.87588 9.58675 -0.413811 40.9828 16.7308 0.678826 1.10447 0.0895015 13.3836 -13.0519 -23.6855 
3.59828 100.309 30.776 -3.26992 3.23474 178.89 -0.427316 -11.7159 6.95643 0.491701 10.5196 -17.5943 6.17156 -2.52293 -0.172939 13.3799 1.65544 -13.737 -4.82186 2.396 -0.521121 -4.48139 -3.12622 -0.403667 6.60482 13.8025 -4.1939 1.49089e-016 0 -7.95139e-016 -82.8129 -20.3586 -10.6001 -19.5558 14.0355 -10.7816 0.368473 9.90896 -0.00117926 11.7462 -0.960025 -8.58154 78.2295 -31.1854 7.24606 19.8435 11.4242 -3.60343 -0.369625 9.91382 0.00119886 -1.28312 1.88049 10.8221 0.822192 44.6532 16.4938 0.653884 5.71871 0.0591277 22.2801 -7.53711 -30.603 
3.93884 100.423 29.3035 -2.7075 3.21823 179.202 0.244588 -10.7476 6.85711 0.694854 10.6003 -17.6443 6.14268 -3.56355 -0.122536 13.4604 1.68146 -13.8341 -4.2791 2.5707 -0.47632 -4.06765 -3.03552 -0.379036 6.88392 13.5172 -4.68303 3.47873e-016 3.97569e-016 7.95139e-016 -82.6335 -21.0347 -9.84385 -19.5163 13.9426 -10.2583 0.368473 9.90896 -0.00117926 11.5274 -0.976287 -8.72048 78.9621 -30.7048 8.06093 19.8244 11.4589 -3.42136 -0.369625 9.91382 0.00119886 0.0419743 -0.499444 11.943 2.47861 48.5775 15.6504 0.938069 9.70628 -0.0090737 29.5742 -1.86596 -34.4579 
4.2363 100.505 27.8934 -2.24936 3.05849 179.62 0.820318 -10.0275 7.0959 0.913802 10.747 -18.2014 6.07066 -4.5126 -0.0797848 13.3927 1.54441 -13.6993 -3.74087 2.67858 -0.49533 -3.80791 -2.99988 -0.366308 7.07981 13.2242 -5.02944 8.19987e-016 3.97569e-016 -0 -82.3614 -21.704 -9.18465 -19.5398 13.8613 -9.7828 0.368473 9.90896 -0.00117926 11.5408 -0.974754 -8.70987 79.4705 -30.2389 8.82831 19.8701 11.5064 -3.12756 -0.369625 9.91382 0.00119886 1.03735 -3.27404 12.5814 3.76186 52.7985 14.3622 2.16318 11.1844 -0.187783 29.4719 4.76948 -30.3906 
4.5008 100.591 26.5326 -1.96689 2.83847 -179.971 1.20323 -9.39072 7.40348 1.11583 10.8384 -18.8201 5.97376 -5.3939 -0.0407417 13.3824 1.28785 -13.569 -3.32637 2.73835 -0.543452 -3.71726 -2.96726 -0.361739 7.24044 12.9102 -5.26204 5.46658e-016 -3.97569e-016 -1.98785e-016 -82.0524 -22.4444 -8.61685 -19.5834 13.7775 -9.29413 0.368473 9.90896 -0.00117926 11.5873 -0.940579 -8.51545 79.9638 -29.7071 9.64363 19.9538 11.5646 -2.75229 -0.369625 9.91382 0.00119886 1.70994 -6.21373 12.649 4.80578 56.8489 13.7858 3.44755 11.3503 -0.356319 24.4495 10.4821 -23.6295 
4.74066 100.732 25.2015 -2.02736 2.5995 -179.69 1.21439 -8.72494 7.49915 1.27107 10.7577 -19.0347 5.87415 -6.21267 -0.00356661 13.7869 0.902595 -13.8249 -3.27027 2.73136 -0.586392 -3.88453 -2.95148 -0.368039 7.42319 12.5625 -5.3646 -1.30452e-016 7.95139e-016 9.93923e-017 -81.7167 -23.371 -8.09468 -19.6098 13.6837 -8.77237 0.368473 9.90896 -0.00117926 11.5815 -0.846836 -8.02752 80.4987 -29.0544 10.559 20.0791 11.6313 -2.31113 -0.369625 9.91382 0.00119886 1.84423 -9.14797 11.6944 4.40012 60.2375 16.5863 3.96464 10.6291 -0.389875 18.4788 10.7229 -17.3467 
4.93294 100.883 23.9003 -2.23931 2.40377 -179.525 1.08096 -8.03764 7.61327 1.34517 10.6749 -19.1449 5.80995 -6.82701 0.0247232 14.1588 0.257304 -13.9298 -3.29965 2.71634 -0.635014 -4.14201 -2.84361 -0.373043 7.51117 12.2426 -5.30167 -9.50439e-016 1.19271e-015 9.93923e-017 -81.4229 -24.4386 -7.63005 -19.6244 13.5904 -8.26343 0.368473 9.90896 -0.00117926 11.3314 -0.715496 -7.36461 81.318 -28.3214 11.6243 20.1387 11.6991 -1.90668 -0.369625 9.91382 0.00119886 1.58553 -11.9662 10.3372 2.70337 62.8445 20.8719 4.17801 9.45515 -0.371718 12.4855 8.03643 -11.5291 
5.04593 101.021 22.626 -2.46519 2.34568 -179.51 0.980475 -7.29027 7.94929 1.24388 10.7456 -19.3602 5.86265 -6.83495 0.0258459 13.8638 -0.996389 -13.0254 -3.18252 2.75697 -0.693375 -4.34785 -2.50105 -0.363567 7.39892 12.0001 -4.99525 -9.62863e-016 7.95139e-016 -1.98785e-016 -81.2506 -25.6389 -7.21092 -19.6124 13.512 -7.83807 0.368473 9.90896 -0.00117926 10.5555 -0.554094 -6.6091 82.7885 -27.5428 12.9622 19.9833 11.7555 -1.7073 -0.369625 9.91382 0.00119886 1.16303 -14.4424 9.03145 0.779208 64.5747 24.4473 4.27938 8.54598 -0.348202 7.46273 4.07163 -7.47527 
5.11425 101.132 21.3694 -2.71395 2.36967 -179.627 0.851397 -6.51159 8.30341 1.12708 10.891 -19.4863 5.9228 -7.02189 0.0351728 13.9198 -2.24062 -12.4677 -3.03007 2.81981 -0.747639 -4.51389 -2.0386 -0.345436 7.11078 11.8565 -4.55644 -5.90142e-016 1.98785e-016 9.93923e-017 -81.1833 -26.9754 -6.86522 -19.5992 13.4316 -7.40125 0.368473 9.90896 -0.00117926 9.43748 -0.379518 -5.75964 84.5813 -26.6724 14.3994 19.7449 11.8163 -1.53197 -0.369625 9.91382 0.00119886 0.616693 -16.6486 7.84375 -1.2025 65.5072 27.3731 4.26909 7.47736 -0.306859 3.40079 -0.721293 -4.64814 
5.16093 101.187 20.1224 -2.9544 2.48258 -179.909 0.685118 -5.69902 8.51584 1.17084 11.0981 -19.3517 5.88991 -8.38113 0.098483 15.5004 -2.77837 -13.9275 -2.8819 2.89625 -0.78066 -4.59109 -1.477 -0.316529 6.56677 11.8823 -4.0604 1.55301e-016 1.98785e-016 -0 -81.2834 -28.5185 -6.67967 -19.6057 13.3246 -6.81662 0.368473 9.90896 -0.00117926 7.97094 -0.204864 -4.79544 86.6125 -25.6556 15.8464 19.4736 11.8924 -1.27058 -0.369625 9.91382 0.00119886 0.103164 -18.5488 7.07379 -2.8447 65.7154 28.8325 4.24452 5.96028 -0.248168 0.108654 -5.43872 -2.87031 
5.18901 101.211 18.8784 -3.16292 2.5915 179.761 0.533566 -4.90498 8.66207 1.22332 11.3281 -19.0949 5.82767 -9.88691 0.167567 17.1433 -3.10962 -15.5723 -2.72119 2.97536 -0.806405 -4.62058 -0.955856 -0.287457 5.95706 11.9828 -3.53347 -1.77043e-016 0 -0 -81.412 -30.0595 -6.4743 -19.6261 13.2254 -6.27984 0.368473 9.90896 -0.00117926 6.45071 -0.0500298 -3.85712 88.5282 -24.5743 17.1873 19.2617 11.9846 -0.878038 -0.369625 9.91382 0.00119886 -0.346083 -20.2495 6.54059 -3.91895 65.219 29.4142 4.10878 4.30662 -0.180054 -2.31354 -9.82929 -2.07662 
5.20836 101.219 17.6284 -3.29642 2.59225 179.501 0.462917 -4.17521 8.83045 1.16952 11.5099 -18.8394 5.76542 -10.6618 0.199741 17.5293 -3.55116 -15.7804 -2.54026 3.04191 -0.83057 -4.6089 -0.64837 -0.2691 5.47548 12.0901 -3.03775 1.11661e-015 1.2424e-017 -1.98785e-016 -81.4403 -31.4077 -6.06407 -19.6447 13.1657 -5.95968 0.368473 9.90896 -0.00117926 5.17005 0.0526428 -3.09919 89.9295 -23.4865 18.2437 19.2397 12.1032 -0.216229 -0.369625 9.91382 0.00119886 -0.67607 -21.8751 6.20013 -4.16231 63.9946 29.6111 3.70754 2.68947 -0.105229 -3.46584 -13.3706 -2.58479 
5.2215 101.206 16.3704 -3.39168 2.52588 179.282 0.41884 -3.52703 8.82004 1.08061 11.7251 -18.4592 5.68385 -11.2541 0.220684 17.5795 -4.01679 -15.5979 -2.35128 3.10019 -0.860812 -4.60825 -0.474553 -0.258342 5.041 12.194 -2.5433 -7.26806e-016 -4.96962e-017 3.97569e-016 -81.3385 -32.5777 -5.51025 -19.7212 13.1347 -5.79849 0.368473 9.90896 -0.00117926 4.14012 0.126383 -2.45909 90.9445 -22.4172 19.1451 19.3385 12.2287 0.546791 -0.369625 9.91382 0.00119886 -0.901183 -23.3447 5.93319 -4.10142 62.0671 29.704 3.30362 1.2362 -0.0382807 -4.34019 -16.0808 -3.23954 
5.23976 101.176 15.0994 -3.48756 2.3812 179.13 0.35777 -3.03167 8.33059 0.979956 12.0666 -17.7776 5.53949 -11.9244 0.239355 17.8004 -4.57426 -15.5569 -2.17631 3.15164 -0.916295 -4.71638 -0.443223 -0.258362 4.62978 12.2828 -2.03697 -6.52262e-017 0 7.95139e-016 -80.9861 -33.5039 -4.77435 -19.943 13.1382 -5.83176 0.368473 9.90896 -0.00117926 3.56025 0.181887 -1.94837 91.4703 -21.3689 19.9648 19.5812 12.3356 1.24449 -0.369625 9.91382 0.00119886 -1.05402 -24.6415 5.53932 -4.20135 59.4128 30.2734 3.17116 0.201432 -9.23794e-005 -5.5877 -17.7067 -2.61835 
5.24664 101.122 13.8149 -3.53231 2.21083 179.006 0.340764 -2.56827 7.74884 0.881278 12.4313 -17.0685 5.44107 -12.6585 0.264503 18.046 -5.05506 -15.5819 -1.97785 3.18955 -0.968197 -4.80387 -0.461155 -0.261212 4.26914 12.2924 -1.53156 2.06902e-033 9.93923e-017 -1.19271e-015 -80.5564 -34.2308 -3.98456 -20.2077 13.1565 -5.9495 0.368473 9.90896 -0.00117926 3.15387 0.225055 -1.49925 91.7909 -20.4543 20.6815 19.8292 12.4561 2.00894 -0.369625 9.91382 0.00119886 -1.09743 -25.6988 5.19389 -4.10467 56.1604 30.7259 3.11203 -0.623476 0.0257099 -6.70397 -18.5973 -1.6315 
5.22362 101.038 12.5176 -3.46538 2.07128 178.875 0.421587 -2.02031 7.43492 0.826277 12.7185 -16.6042 5.54479 -13.6095 0.317145 18.3787 -5.17973 -15.8912 -1.70086 3.2058 -0.987584 -4.73524 -0.42076 -0.258344 3.98928 12.1129 -1.01916 -4.34841e-016 0 -3.97569e-016 -80.2026 -34.7571 -3.24695 -20.4488 13.175 -6.07403 0.368473 9.90896 -0.00117926 2.64961 0.269044 -1.0029 92.2205 -19.8645 21.2635 19.9005 12.6346 3.01664 -0.369625 9.91382 0.00119886 -0.961409 -26.4185 5.00523 -3.8428 52.375 30.9231 3.00289 -1.39231 0.0498388 -7.40017 -18.894 -0.813733 
5.18809 100.927 11.1984 -3.35053 1.93963 178.753 0.540595 -1.45358 7.16844 0.786943 13.0124 -16.2175 5.66852 -14.5362 0.370362 18.6705 -5.34588 -16.1314 -1.42028 3.20619 -0.993937 -4.62673 -0.373961 -0.254748 3.76854 11.8707 -0.551164 5.09386e-016 3.97569e-016 -0 -79.903 -35.1656 -2.6144 -20.6456 13.1841 -6.144 0.368473 9.90896 -0.00117926 2.22801 0.302949 -0.594002 92.5844 -19.3561 21.8093 19.9388 12.8049 3.96996 -0.369625 9.91382 0.00119886 -0.73359 -26.8797 4.99374 -3.33861 48.2174 30.6664 2.89944 -2.01501 0.0679946 -8.00922 -18.9661 0.0245913 
5.15732 100.781 9.84559 -3.22486 1.81151 178.64 0.668603 -0.909035 6.7835 0.735877 13.3924 -15.7883 5.64462 -15.1886 0.397855 18.747 -5.95423 -15.8965 -1.21099 3.18941 -0.993178 -4.54042 -0.319536 -0.251329 3.57317 11.6374 -0.178034 2.85753e-016 1.98785e-016 7.95139e-016 -79.6941 -35.5518 -2.19203 -20.7617 13.168 -6.06193 0.368473 9.90896 -0.00117926 2.00529 0.315319 -0.421503 92.7619 -18.6818 22.4559 20.0641 12.9052 4.55109 -0.369625 9.91382 0.00119886 -0.459055 -27.1288 5.20802 -2.72495 43.8177 29.7152 2.87055 -2.47715 0.079536 -8.92281 -19.5067 0.989384 
5.11316 100.619 8.46782 -3.10792 1.68787 178.548 0.781842 -0.342237 6.47676 0.698761 13.7742 -15.4455 5.57774 -15.7456 0.416568 18.8257 -6.72149 -15.5703 -1.01796 3.16872 -0.997068 -4.50328 -0.309333 -0.251794 3.45192 11.4687 0.109138 -1.2424e-016 0 -0 -79.5417 -35.8838 -1.92438 -20.7787 13.1314 -5.85854 0.368473 9.90896 -0.00117926 1.90442 0.321007 -0.333796 92.8518 -18.0566 23.0502 20.1914 12.9812 4.99153 -0.369625 9.91382 0.00119886 -0.216212 -27.1643 5.66639 -1.94837 39.1721 28.3705 2.75363 -2.70556 0.0841275 -9.56139 -19.6869 1.83057 
